<svg xmlns="http://www.w3.org/2000/svg" version="1.1" xmlns:xlink="http://www.w3.org/1999/xlink" xmlns:svgjs="http://svgjs.dev/svgjs" width="1000" height="1000" viewBox="0 0 1000 1000"><rect width="1000" height="1000" fill="#000000"></rect><g transform="matrix(0.7,0,0,0.7,149.57575762888058,390.7818837834848)"><svg viewBox="0 0 396 124" data-background-color="#ffffff" preserveAspectRatio="xMidYMid meet" height="313" width="1000" xmlns="http://www.w3.org/2000/svg" xmlns:xlink="http://www.w3.org/1999/xlink"><g id="tight-bounds" transform="matrix(1,0,0,1,0.24000003005244253,-0.1878301650027936)"><svg viewBox="0 0 395.52 105.86810391121097" height="105.86810391121097" width="395.52"><g><svg viewBox="0 0 659.548728709033 176.54018341796873" height="105.86810391121097" width="395.52"><g transform="matrix(1,0,0,1,0,20.95290111231337)"><svg viewBox="0 0 395.52 134.634381193342" height="134.634381193342" width="395.52"><g id="textblocktransform"><svg viewBox="0 0 395.52 134.634381193342" height="134.634381193342" width="395.52" id="textblock"><g><svg viewBox="0 0 395.52 83.01296493092455" height="83.01296493092455" width="395.52"><g transform="matrix(1,0,0,1,0,0)"><svg width="395.52" viewBox="2.450000047683716 -38.400001525878906 188.1699981689453 39.5" height="83.01296493092455" data-palette-color="#39cccc"><path d="M5.75 1.1Q4.85 1.1 4.38 1.03 3.9 0.95 3.35 0.7L3.35 0.7Q2.75 0.4 2.45-0.15L2.45-0.15Q2.45-0.75 3-0.75L3-0.75Q3.55-0.75 4.4-0.4L4.4-0.4Q5.2 0 5.75 0L5.75 0Q6.85 0 7.78-0.9 8.7-1.8 9.2-3.25L9.2-3.25Q10.2-6.1 10.2-8.3L10.2-8.3Q10.2-10.75 9.5-13.25 8.8-15.75 7.65-17.95L7.65-17.95Q7.4-18.5 6.8-19.6L6.8-19.6Q5.55-22.1 4.9-23.5 4.25-24.9 3.75-26.6L3.75-26.6Q3.05-28.85 3.05-31.45L3.05-31.45Q3.05-33.1 3.58-34.63 4.1-36.15 5.25-37.25L5.25-37.25Q6.5-38.4 8.05-38.4L8.05-38.4Q8.65-38.4 9.5-37.93 10.35-37.45 10.35-37L10.35-37Q10.35-36.6 10.05-36.6L10.05-36.6Q9.75-36.6 9.25-36.85L9.25-36.85Q8.8-37.1 8.4-37.1L8.4-37.1Q7.25-37.1 6.38-36.25 5.5-35.4 5.1-34.15L5.1-34.15Q4.75-33.1 4.75-31.85L4.75-31.85Q4.75-29.9 5.25-27.83 5.75-25.75 6.6-23.95L6.6-23.95 8.35-20.3 8.85-19.25Q9.9-17.1 10.48-15.7 11.05-14.3 11.45-12.55L11.45-12.55Q12-10.2 12-8.05L12-8.05Q12-5.15 10.5-2.15L10.5-2.15Q9.75-0.7 8.5 0.2 7.25 1.1 5.75 1.1L5.75 1.1ZM19.65 0.65Q18.95 0.65 18.8-0.5L18.8-0.5Q18.9-0.8 18.9-2.15L18.9-2.15Q18.9-6.75 19.05-15.8L19.05-15.8Q19.2-24.8 19.2-28.8L19.2-28.8 19.3-30.6 19.45-32.1Q19.45-32.45 19.8-32.45L19.8-32.45Q20.05-32.45 20.5-32.3L20.5-32.3 20.65-32.25Q20.65-31.15 20.6-30.25L20.6-30.25 20.6-28.3 20.6-22.85Q20.65-20.45 20.65-17.4L20.65-17.4Q20.6-17.15 20.6-16.3L20.6-16.3 20.55-15.25Q20.5-14.25 20.5-13.2L20.5-13.2Q20.5-12.05 20.55-11.1L20.55-11.1 20.6-8.95 20.45-8.55 20.5-8.6Q20.5-8.45 20.45-8.4L20.45-8.4 20.45-8.2Q20.45-7.8 20.6-7.5L20.6-7.5 20.45-2.7 20.45-2.4Q20.45-1.55 20.5-1.4L20.5-1.4Q20.5-1.15 20.75-1.15L20.75-1.15 23.35-1.05Q24.5-1.05 24.92-1.03 25.35-1 25.45-1L25.45-1 25.6-1Q25.85-1 26.1-0.73 26.35-0.45 26.35-0.15L26.35-0.15Q26.35 0.45 25.55 0.5L25.55 0.5Q24.7 0.45 21.4 0.45L21.4 0.45 21.5 0.5Q21 0.5 20.55 0.55L20.55 0.55Q20.15 0.65 19.65 0.65L19.65 0.65ZM32.15 0.65Q31.25 0.65 31.15-0.4L31.15-0.4 31.15-1.05Q31.2-1.3 31.2-1.65L31.2-1.65 31-1.85Q31.4-2.9 31.4-3.9L31.4-3.9Q31.4-5.05 31.25-7.2L31.25-7.2 31.15-10.5Q31.15-13 31.3-18L31.3-18Q31.5-22.45 31.5-25.55L31.5-25.55 31.4-28.55Q31.3-29.9 31.3-31.55L31.3-31.55Q31.3-32.3 31.65-32.63 32-32.95 32.75-32.95L32.75-32.95Q33.25-32.95 33.55-32.65L33.55-32.65Q33.65-32.6 35-32.45L35-32.45Q36.25-32.3 37.15-32L37.15-32Q38.09-31.7 38.09-31.25L38.09-31.25Q38.09-30.75 37.15-30.25L37.15-30.25Q34.3-31.2 33.09-31.2L33.09-31.2 32.84-30.9Q32.9-30.45 32.9-28.75L32.9-28.75Q32.9-26.6 32.8-24.9L32.8-24.9Q32.75-23.15 32.75-21L32.75-21Q32.75-19.6 33.45-19.6L33.45-19.6 34.25-19.65Q34.65-19.7 35.09-19.7L35.09-19.7Q37.05-19.7 37.05-18.8L37.05-18.8Q37.05-18.25 36.8-17.88 36.55-17.5 36.05-17.5L36.05-17.5Q35.3-17.5 34.9-17.9L34.9-17.9 33.3-18.15 33.05-18.15 32.8-17.9 32.8-17.75Q32.9-16.9 32.9-13.8L32.9-13.8Q32.9-11.85 32.84-10.25L32.84-10.25 32.8-6.7Q32.8-4.75 32.95-2.7L32.95-2.7Q33-1.55 33.45-1.18 33.9-0.8 35.09-0.8L35.09-0.8 36-0.85Q36.45-0.9 37-0.9L37-0.9Q38.45-0.9 38.45-0.25L38.45-0.25Q38.45 0.65 36.25 0.65L36.25 0.65 32.15 0.65ZM56.74 0.2Q56.34 0.2 56.17-0.1 55.99-0.4 55.84-1L55.84-1Q55.79-1.4 55.64-1.7L55.64-1.7 55.69-1.85Q55.29-4.2 53.99-7.6L53.99-7.6 53.09-10.2Q52.99-10.3 52.14-12.75L52.14-12.75 51.74-13.95Q47.24-27.85 46.09-29L46.09-29Q45.69-27.65 45.69-25.5L45.69-25.5Q45.69-24.35 45.74-23.5L45.74-23.5 45.79-21.55 45.74-20.35Q45.69-19.8 45.69-19.15L45.69-19.15Q45.69-18.05 45.79-17.25L45.79-17.25Q45.89-15.65 45.89-15.65L45.89-15.65 45.74-15.65Q45.74-7.3 46.09-6.45L46.09-6.45 46.09-1.95Q46.29-1.55 46.29-0.9L46.29-0.9Q46.29-0.5 46.02-0.2 45.74 0.1 45.34 0.1L45.34 0.1Q44.29 0.1 44.29-2.6L44.29-2.6 44.39-4.2Q44.49-4.95 44.49-5.85L44.49-5.85Q44.49-8.25 44.34-13.05L44.34-13.05Q44.19-17.85 44.19-20.25L44.19-20.25Q44.19-21.7 44.34-24.7L44.34-24.7Q44.49-27.65 44.49-29.1L44.49-29.1 44.49-29.75Q44.49-32.2 45.39-32.95L45.39-32.95 45.54-32.8 46.04-32.9Q46.24-32.85 46.49-32.6L46.49-32.6Q46.69-32.4 46.69-32.15L46.69-32.15 46.79-31.85Q46.79-31.75 46.82-31.68 46.84-31.6 46.84-31.6L46.84-31.6Q47.64-28.05 50.44-21.65L50.44-21.65Q53.29-14.9 53.99-12.7L53.99-12.7Q54.49-10.95 54.79-9.6L54.79-9.6Q55.74-5.35 57.04-3.05L57.04-3.05 57.14-3.2Q58.29-14.3 58.29-30.45L58.29-30.45 58.24-31.05Q58.19-31.3 58.19-31.7L58.19-31.7Q58.19-32.75 58.89-32.75L58.89-32.75Q59.34-32.75 59.67-32.3 59.99-31.85 59.99-31.3L59.99-31.3 59.99-27.95 59.74-27.55Q59.74-22.8 59.19-11.95 58.64-1.1 58.14-0.15L58.14-0.15 57.29 0.05 57.29 0.1 57.24 0.05 56.74 0.2ZM67.94 0.25Q67.54 0.25 67.54-1.1L67.54-1.1Q67.34-4.55 67.34-9.8L67.34-9.8Q67.34-13.1 67.39-15.7L67.39-15.7 67.44-21.6Q67.44-25.4 67.24-31L67.24-31Q66.79-31.4 66.79-32L66.79-32Q66.79-32.35 67.22-32.73 67.64-33.1 67.99-33.1L67.99-33.1Q68.39-33.1 68.74-32.7L68.74-32.7 69.29-32.25Q69.59-32.1 70.44-31.95L70.44-31.95Q71.29-31.8 71.64-31.65L71.64-31.65Q72.39-31.25 73.64-30.1L73.64-30.1Q74.84-28.9 75.29-28.6L75.29-28.6 75.24-28.5Q75.29-28.2 75.99-27.2L75.99-27.2Q76.54-26.45 76.89-25.8L76.89-25.8Q77.69-23.5 77.69-19.85L77.69-19.85Q77.69-19.2 77.64-18.7L77.64-18.7 77.64-17.5 77.64-17.1 77.59-16.6Q77.59-15.65 77.89-15.1L77.89-15.1Q77.59-13.5 77.14-9.05L77.14-9.05Q76.99-7.75 76.64-6.3 76.29-4.85 75.79-3.9L75.79-3.9Q74.49-1.45 71.44 0.25L71.44 0.25 67.94 0.25ZM69.69-1.2L71.24-1.2Q71.59-1.6 71.89-1.85L71.89-1.85Q71.89-1.85 72.24-2.1L72.24-2.1 72.64-2.45Q76.14-5.6 76.14-14.45L76.14-14.45 76.14-15.4Q76.09-15.8 76.09-16.25L76.09-16.25 75.89-21.3Q75.74-24.2 74.14-27.3L74.14-27.3Q73.39-28.85 72.12-29.83 70.84-30.8 69.44-30.8L69.44-30.8Q68.84-30.8 68.84-21.55L68.84-21.55Q68.84-10.85 69.44-2.9L69.44-2.9 69.39-1.95 69.59-1.85 69.69-1.2ZM85.34 0.65Q84.44 0.65 84.34-0.4L84.34-0.4 84.34-1.05Q84.39-1.3 84.39-1.65L84.39-1.65 84.19-1.85Q84.59-2.9 84.59-3.9L84.59-3.9Q84.59-5.05 84.44-7.2L84.44-7.2 84.34-10.5Q84.34-13 84.49-18L84.49-18Q84.69-22.45 84.69-25.55L84.69-25.55 84.59-28.55Q84.49-29.9 84.49-31.55L84.49-31.55Q84.49-32.3 84.84-32.63 85.19-32.95 85.94-32.95L85.94-32.95Q86.44-32.95 86.74-32.65L86.74-32.65Q86.84-32.6 88.19-32.45L88.19-32.45Q89.44-32.3 90.34-32L90.34-32Q91.29-31.7 91.29-31.25L91.29-31.25Q91.29-30.75 90.34-30.25L90.34-30.25Q87.49-31.2 86.29-31.2L86.29-31.2 86.04-30.9Q86.09-30.45 86.09-28.75L86.09-28.75Q86.09-26.6 85.99-24.9L85.99-24.9Q85.94-23.15 85.94-21L85.94-21Q85.94-19.6 86.64-19.6L86.64-19.6 87.44-19.65Q87.84-19.7 88.29-19.7L88.29-19.7Q90.24-19.7 90.24-18.8L90.24-18.8Q90.24-18.25 89.99-17.88 89.74-17.5 89.24-17.5L89.24-17.5Q88.49-17.5 88.09-17.9L88.09-17.9 86.49-18.15 86.24-18.15 85.99-17.9 85.99-17.75Q86.09-16.9 86.09-13.8L86.09-13.8Q86.09-11.85 86.04-10.25L86.04-10.25 85.99-6.7Q85.99-4.75 86.14-2.7L86.14-2.7Q86.19-1.55 86.64-1.18 87.09-0.8 88.29-0.8L88.29-0.8 89.19-0.85Q89.64-0.9 90.19-0.9L90.19-0.9Q91.64-0.9 91.64-0.25L91.64-0.25Q91.64 0.65 89.44 0.65L89.44 0.65 85.34 0.65ZM105.54 0.85L104.84 0.6Q104.24-0.05 103.54-2.85 102.84-5.65 102.24-9.15L102.24-9.15Q101.84-12 101.09-14.8L101.09-14.8Q100.49-17.3 99.94-17.3L99.94-17.3 99.79-17.3Q98.69-17.3 98.69-16.6L98.69-16.6Q98.69-13 99.09-5.65L99.09-5.65Q99.29-1.15 99.54-0.4L99.54-0.4 99.14 0.45 98.44 0.45 98.04 0.05Q97.24-23.05 97.24-31.45L97.24-31.45Q97.24-32 97.31-32.35 97.39-32.7 97.64-33L97.64-33Q97.84-33.35 98.34-33.35L98.34-33.35Q100.89-33.35 102.44-32.1 103.99-30.85 103.99-28.5L103.99-28.5 103.99-24.85Q103.99-23.9 103.36-22.3 102.74-20.7 101.99-19.35L101.99-19.35 101.34-18.1Q101.89-15.55 103.51-8.93 105.14-2.3 105.29-1.9L105.29-1.9Q105.34-1.85 105.41-1.65 105.49-1.45 105.74-1.05L105.74-1.05Q106.09-0.35 106.09 0.15L106.09 0.15Q106.09 0.85 105.54 0.85L105.54 0.85ZM98.94-18.55Q99.89-18.55 100.64-19.5 101.39-20.45 101.84-21.95L101.84-21.95Q102.64-25 102.64-26.8L102.64-26.8Q102.64-27.95 102.51-28.7 102.39-29.45 102.09-30.3L102.09-30.3Q101.49-32.05 99.24-32.05L99.24-32.05Q98.99-32.05 98.84-31.63 98.69-31.2 98.69-30.75L98.69-30.75Q98.69-27.4 98.79-24.7L98.79-24.7Q98.84-22 98.84-18.65L98.84-18.65 98.94-18.55ZM112.23 0.6Q111.68 0.5 111.18 0.18 110.68-0.15 110.63-0.6L110.63-0.6 110.88-1Q111.08-1 111.78-0.85L111.78-0.85Q112.33-0.65 112.68-0.65L112.68-0.65Q113.78-0.65 114.63-1.53 115.48-2.4 115.93-3.8L115.93-3.8Q116.63-6.4 116.63-8.7L116.63-8.7Q116.63-12.15 114.53-16.1L114.53-16.1Q113.23-18.4 112.53-19.75 111.83-21.1 111.28-22.85L111.28-22.85Q110.63-24.9 110.63-26.8L110.63-26.8Q110.63-28.6 111.53-31.05L111.53-31.05Q111.98-32.2 112.81-32.93 113.63-33.65 114.58-33.65L114.58-33.65Q115.23-33.65 115.86-33.2 116.48-32.75 116.48-32.25L116.48-32.25Q116.48-31.85 115.83-31.85L115.83-31.85Q115.63-31.85 115.33-32L115.33-32Q115.03-32.15 114.78-32.15L114.78-32.15Q114.03-32.15 113.43-31.55 112.83-30.95 112.53-30L112.53-30Q111.93-28.15 111.93-26.6L111.93-26.6Q111.93-25.65 112.18-24.65L112.18-24.65Q112.23-24.35 112.28-24.15 112.33-23.95 112.33-23.85L112.33-23.85 112.63-22.85 112.88-21.95 113.28-21.05Q113.43-20.7 113.61-20.43 113.78-20.15 113.93-19.9L113.93-19.9 114.53-18.85Q114.73-18.55 115.38-17.43 116.03-16.3 116.58-15.05L116.58-15.05Q117.08-14 117.33-13.08 117.58-12.15 117.78-10.85L117.78-10.85Q117.93-9.6 117.93-8.1L117.93-8.1Q117.93-5.7 117.28-3.6L117.28-3.6Q116.38-1.1 114.68-0.1L114.68-0.1Q113.73 0.5 112.48 0.5L112.48 0.5 112.23 0.6ZM116.18-32L116.23-32Q116.23-32.05 116.18-32.05L116.18-32.05 116.18-32ZM129.18 0.95Q123.33 0.95 123.33-17.45L123.33-17.45 123.33-19.2Q123.33-33.15 126.93-33.15L126.93-33.15Q127.18-33.15 127.63-33L127.63-33Q129.23-32.45 130.78-32.3L130.78-32.3Q131.73-32.1 132.68-30.35L132.68-30.35Q133.73-28.55 134.25-25.6 134.78-22.65 134.78-19.55L134.78-19.55 134.68-19.3Q134.68-17.65 134.73-16.35L134.73-16.35 134.78-13.35Q134.78-10.8 134.58-8.75L134.58-8.75Q134.28-5.65 133.58-3.4L133.58-3.4Q133.13-2.05 132.56-1.15 131.98-0.25 131.13 0.35L131.13 0.35Q130.33 0.95 129.18 0.95L129.18 0.95ZM128.98-0.5Q130.93-0.5 131.88-3.25L131.88-3.25Q132.83-6.05 133.03-8.95L133.03-8.95Q133.23-11.95 133.23-13.75L133.23-13.75Q133.23-15.75 132.93-19.65L132.93-19.65Q132.68-24 132.68-25.55L132.68-25.55 132.48-25.95 132.58-26.2Q132.58-28.4 131.36-30 130.13-31.6 128.38-31.6L128.38-31.6Q126.08-31.6 125.63-29.4L125.63-29.4Q125.53-28.65 125.43-27.25L125.43-27.25Q125.43-23.55 125.13-22.2L125.13-22.2Q125.13-21.45 124.98-19.85L124.98-19.85 124.88-17.5Q124.88-16.4 124.93-15.55L124.93-15.55 124.98-13.55Q124.98-11.2 125.38-8.15L125.38-8.15Q125.68-5.9 126.08-4.35 126.48-2.8 127.23-1.7L127.23-1.7Q127.98-0.5 128.98-0.5L128.98-0.5ZM146.18 0.8L144.98 0.35Q144.03 0.05 143.35-0.5 142.68-1.05 142.08-2.15L142.08-2.15Q141.03-4.15 140.83-7.9L140.83-7.9Q140.73-9.6 140.73-10.9L140.73-10.9 140.73-16.6Q140.73-19.85 140.93-22.9L140.93-22.9Q141.08-25.15 141.38-26.7 141.68-28.25 142.33-29.8L142.33-29.8Q143.03-31.4 143.88-32.05L143.88-32.05Q144.23-32.35 145.23-32.75L145.23-32.75Q145.88-33 146.48-33.3L146.48-33.3 148.48-33.3 148.63-33.3Q148.68-33.25 148.78-33.25L148.78-33.25 149.03-33.2 149.23-33.05Q149.38-32.9 149.38-32.85L149.38-32.85Q149.43-32.75 149.43-32.55L149.43-32.55 148.78-31.8 146.68-31.8Q145.73-31.8 144.95-30.88 144.18-29.95 143.78-28.55L143.78-28.55Q143.38-27.3 143.13-25.6 142.88-23.9 142.83-22.65L142.83-22.65Q142.73-21.05 142.73-20.45L142.73-20.45 142.63-20.2Q142.63-17.4 142.53-15.15L142.53-15.15 142.43-10.1Q142.43-7.9 142.73-6.05L142.73-6.05Q142.98-4.05 144.18-2.45L144.18-2.45Q145.33-0.85 147.73-0.85L147.73-0.85Q148.48-0.85 148.98-1.3L148.98-1.3Q149.73-1.3 149.73-0.75L149.73-0.75Q149.73-0.4 149.1 0.08 148.48 0.55 147.83 0.8L147.83 0.8 146.18 0.8ZM158.23 0Q157.08 0 156.88-0.5L156.88-0.5Q156.63-0.5 156.48-0.45L156.48-0.45 156.08-0.45Q154.98-0.45 154.68-0.95L154.68-0.95Q154.68-1.3 155.08-1.55L155.08-1.55 155.33-1.8 156.78-1.8 156.98-2 157.08-2.45 157.13-3.05Q157.13-6.1 156.98-8.5L156.98-8.5 156.88-10.35 156.78-14Q156.78-15.95 156.93-19.85L156.93-19.85 157.03-25.65Q157.03-29.45 156.78-31.45L156.78-31.45Q156.33-31.6 155.28-31.6L155.28-31.6 154.73-31.55Q154.43-31.5 154.08-31.5L154.08-31.5Q153.13-31.5 153.13-32.35L153.13-32.35Q153.13-32.55 153.58-32.75 154.03-32.95 154.33-32.95L154.33-32.95Q156.23-32.95 158.13-32.75L158.13-32.75Q159.28-32.7 160.43-32.3L160.43-32.3Q161.33-32 161.33-31.45L161.33-31.45Q161.33-31.35 161.18-31.05L161.18-31.05 160.03-30.95Q159.68-31.25 158.58-31.25L158.58-31.25 158.33-31.1Q158.48-30.65 158.48-28.45L158.48-28.45Q158.48-25.15 158.43-22.5L158.43-22.5 158.33-16.55Q158.33-14.3 158.53-11.1L158.53-11.1Q158.68-7.45 158.68-5.6L158.68-5.6 158.68-4.95Q158.63-4.6 158.63-4.05L158.63-4.05Q158.63-2.9 158.78-2.65L158.78-2.65 158.73-2.55Q158.73-2.05 159.83-2.05L159.83-2.05Q160.28-2.05 160.58-2.1L160.58-2.1 161.33-2.1Q162.78-2.1 162.78-1.4L162.78-1.4Q162.78-0.95 162.48-0.68 162.18-0.4 161.68-0.4L161.68-0.4Q161.23-0.4 160.88-0.5L160.88-0.5Q160.48-0.55 160.03-0.55L160.03-0.55Q159.73-0.55 159.13-0.3L159.13-0.3Q158.53 0 158.23 0L158.23 0ZM177.22 0.45Q176.47 0.45 176.27 0.28 176.07 0.1 175.97-0.65L175.97-0.65Q175.52-4.3 175.42-5.2L175.42-5.2 175.17-7.2Q174.07-7.45 172.67-7.45L172.67-7.45 170.87-7.55Q169.67-7.7 169.12-7.7L169.12-7.7Q168.82-7.7 168.77-7.45L168.77-7.45Q168.77-7.3 168.72-7.3L168.72-7.3 168.62-6.3Q168.57-5.4 168.07-2.7L168.07-2.7Q167.82-1.35 167.47-0.6L167.47-0.6Q167.07 0.25 166.72 0.25L166.72 0.25Q166.42 0.25 166.07-0.03 165.72-0.3 165.72-0.6L165.72-0.6 165.77-0.75 165.82-0.9Q166.72-4.45 167.32-7.95L167.32-7.95 167.92-11.05 168.52-14.85Q168.52-14.85 169.07-18.15L169.07-18.15Q169.32-19.5 169.97-22.5L169.97-22.5Q170.67-25.9 170.82-27.15L170.82-27.15Q170.87-27.3 171.02-29L171.02-29Q171.22-30.9 171.37-31.8L171.37-31.8Q171.52-33.1 171.67-33.3L171.67-33.3 172.02-33.3Q172.17-33.25 172.37-33.25L172.37-33.25Q172.97-33.25 173.27-33.55L173.27-33.55Q173.62-33.55 173.9-33.33 174.17-33.1 174.17-32.8L174.17-32.8Q174.17-30.4 174.52-27.3L174.52-27.3Q174.72-25.7 174.82-24.65L174.82-24.65Q175.37-18.2 177.62-0.45L177.62-0.45 177.62-0.3Q177.62 0.2 177.22 0.45L177.22 0.45ZM174.42-8.55L174.92-8.55Q174.42-15.75 173.02-29.8L173.02-29.8 170.32-16.45Q169.17-10.7 169.17-9.2L169.17-9.2Q169.17-8.95 171.07-8.75 172.97-8.55 174.42-8.55L174.42-8.55ZM183.92 0.65Q183.22 0.65 183.07-0.5L183.07-0.5Q183.17-0.8 183.17-2.15L183.17-2.15Q183.17-6.75 183.32-15.8L183.32-15.8Q183.47-24.8 183.47-28.8L183.47-28.8 183.57-30.6 183.72-32.1Q183.72-32.45 184.07-32.45L184.07-32.45Q184.32-32.45 184.77-32.3L184.77-32.3 184.92-32.25Q184.92-31.15 184.87-30.25L184.87-30.25 184.87-28.3 184.87-22.85Q184.92-20.45 184.92-17.4L184.92-17.4Q184.87-17.15 184.87-16.3L184.87-16.3 184.82-15.25Q184.77-14.25 184.77-13.2L184.77-13.2Q184.77-12.05 184.82-11.1L184.82-11.1 184.87-8.95 184.72-8.55 184.77-8.6Q184.77-8.45 184.72-8.4L184.72-8.4 184.72-8.2Q184.72-7.8 184.87-7.5L184.87-7.5 184.72-2.7 184.72-2.4Q184.72-1.55 184.77-1.4L184.77-1.4Q184.77-1.15 185.02-1.15L185.02-1.15 187.62-1.05Q188.77-1.05 189.2-1.03 189.62-1 189.72-1L189.72-1 189.87-1Q190.12-1 190.37-0.73 190.62-0.45 190.62-0.15L190.62-0.15Q190.62 0.45 189.82 0.5L189.82 0.5Q188.97 0.45 185.67 0.45L185.67 0.45 185.77 0.5Q185.27 0.5 184.82 0.55L184.82 0.55Q184.42 0.65 183.92 0.65L183.92 0.65Z" opacity="1" transform="matrix(1,0,0,1,0,0)" fill="#ffffff" class="wordmark-text-0" data-fill-palette-color="primary" id="text-0"></path></svg></g></svg></g><g transform="matrix(1,0,0,1,163.310208,102.6103336399575)"><svg viewBox="0 0 232.209792 32.024047553384506" height="32.024047553384506" width="232.209792"><g transform="matrix(1,0,0,1,0,0)"><svg width="232.209792" viewBox="1.8600000143051147 -38.09000015258789 279.8500061035156 38.599998474121094" height="32.024047553384506" data-palette-color="#35c7c7"><path d="M12.74 0L1.86 0 1.86-2.12 5.83-2.44 5.83-33.08 1.86-33.4 1.86-35.55 28.17-35.55 28.17-27.76 25.68-27.76 25.44-33.11 8.76-33.11 8.76-19.14 23.24-19.14 23.24-16.67 8.76-16.67 8.76-2.44 12.74-2.12 12.74 0ZM43.21 0.51L43.21 0.51Q39.06 0.51 36.75-2.32 34.45-5.15 34.45-11.11L34.45-11.11 34.45-23.95 31.17-24.27 31.17-26.42 34.45-26.42 37.38-26.42 37.38-11.06Q37.38-6.23 38.96-4.11 40.55-2 43.55-2L43.55-2Q46.95-2 48.85-3.58 50.75-5.15 51.46-7.81L51.46-7.81 51.46-23.95 47.7-24.27 47.7-26.42 51.46-26.42 54.42-26.42 54.42-2.44 57.96-2.12 57.96 0 51.83 0 51.58-4.35Q50.34-2.03 48.25-0.76 46.16 0.51 43.21 0.51ZM72.72 0L61.84 0 61.84-2.12 65.82-2.44 65.82-23.95 61.84-24.27 61.84-26.42 68.4-26.42 68.65-21.68Q69.92-24.17 72.07-25.54 74.21-26.9 77.19-26.9L77.19-26.9Q81.49-26.9 83.74-24.28 85.98-21.66 85.98-16.06L85.98-16.06 85.98-2.44 89.96-2.12 89.96 0 79.07 0 79.07-2.12 83.05-2.44 83.05-16.04Q83.05-20.63 81.37-22.51 79.68-24.39 76.56-24.39L76.56-24.39Q73.29-24.39 71.38-22.56 69.48-20.73 68.75-17.77L68.75-17.77 68.75-2.44 72.72-2.12 72.72 0ZM126.24 0L115.35 0 115.35-2.12 119.33-2.44 119.33-33.15 109.34-33.15 109.02-27.73 106.63-27.73 106.63-35.55 134.93-35.55 134.93-27.73 132.56-27.73 132.22-33.15 122.26-33.15 122.26-2.44 126.24-2.12 126.24 0ZM148.57 0.51L148.57 0.51Q145.01 0.51 142.38-1.18 139.76-2.88 138.31-5.9 136.85-8.91 136.85-12.79L136.85-12.79 136.85-13.6Q136.85-17.48 138.31-20.48 139.76-23.49 142.38-25.2 145.01-26.9 148.52-26.9L148.52-26.9Q152.06-26.9 154.69-25.2 157.31-23.49 158.76-20.5 160.22-17.5 160.22-13.6L160.22-13.6 160.22-12.79Q160.22-8.89 158.76-5.88 157.31-2.88 154.69-1.18 152.06 0.51 148.57 0.51ZM148.57-1.93L148.57-1.93Q151.28-1.93 153.23-3.37 155.19-4.81 156.24-7.28 157.29-9.74 157.29-12.79L157.29-12.79 157.29-13.6Q157.29-16.63 156.24-19.09 155.19-21.56 153.22-23 151.26-24.44 148.52-24.44L148.52-24.44Q145.79-24.44 143.82-23 141.86-21.56 140.82-19.09 139.78-16.63 139.78-13.6L139.78-13.6 139.78-12.79Q139.78-9.72 140.82-7.26 141.86-4.81 143.82-3.37 145.79-1.93 148.57-1.93ZM193.42 0.51L193.42 0.51Q188.14 0.51 184.54-1.79 180.94-4.1 179.1-8.18 177.25-12.26 177.25-17.53L177.25-17.53 177.25-17.99Q177.25-23.32 179.17-27.38 181.09-31.45 184.6-33.75 188.12-36.06 192.85-36.06L192.85-36.06Q196.52-36.06 199.16-35.03 201.81-34.01 203.86-32.23L203.86-32.23 203.86-25.32 201.37-25.32 201.13-30.98Q200.06-31.79 198.87-32.35 197.69-32.91 196.23-33.22 194.78-33.52 192.85-33.52L192.85-33.52Q188.97-33.52 186.13-31.56 183.28-29.59 181.73-26.11 180.18-22.63 180.18-18.04L180.18-18.04 180.18-17.53Q180.18-12.79 181.76-9.3 183.33-5.81 186.3-3.91 189.26-2 193.44-2L193.44-2Q195.69-2 197.77-2.56 199.86-3.13 201.3-4.05L201.3-4.05 201.55-9.42 204.01-9.42 204.01-2.34Q201.84-0.93 199.12-0.21 196.39 0.51 193.42 0.51ZM219.15 0L208.26 0 208.26-2.12 212.24-2.44 212.24-35.62 208.26-35.94 208.26-38.09 215.17-38.09 215.17-21.8Q216.46-24.22 218.64-25.56 220.83-26.9 223.78-26.9L223.78-26.9Q227.96-26.9 230.19-24.33 232.43-21.75 232.43-16.28L232.43-16.28 232.43-2.44 236.41-2.12 236.41 0 225.52 0 225.52-2.12 229.5-2.44 229.5-16.33Q229.5-20.65 227.81-22.52 226.13-24.39 223.12-24.39L223.12-24.39Q219.9-24.39 217.94-22.58 215.97-20.78 215.17-17.9L215.17-17.9 215.17-2.44 219.15-2.12 219.15 0ZM248.76 0.51L248.76 0.51Q245 0.51 242.87-1.49 240.75-3.49 240.75-6.91L240.75-6.91Q240.75-9.35 242.17-11.19 243.58-13.04 246.18-14.06 248.78-15.09 252.35-15.09L252.35-15.09 257.81-15.09 257.81-18.12Q257.81-20.97 256.12-22.72 254.42-24.46 251-24.46L251-24.46Q249.07-24.46 247.55-23.84 246.02-23.22 244.9-22.27L244.9-22.27 244.66-18.24 242.24-18.24 242.24-23.75Q243.95-25.22 246.12-26.06 248.29-26.9 251.05-26.9L251.05-26.9Q255.71-26.9 258.23-24.56 260.74-22.22 260.74-18.07L260.74-18.07 260.74-5.32Q260.74-4.54 260.79-3.77 260.84-3 260.96-2.25L260.96-2.25 264.11-2.12 264.11 0 258.35 0Q258.06-1.44 257.95-2.32 257.84-3.2 257.81-4.3L257.81-4.3Q256.37-2.17 254.01-0.83 251.64 0.51 248.76 0.51ZM249.1-2.05L249.1-2.05Q251.81-2.05 254.24-3.48 256.67-4.91 257.81-7.28L257.81-7.28 257.81-12.84 252.32-12.84Q248.27-12.84 245.97-11.1 243.68-9.35 243.68-6.81L243.68-6.81Q243.68-4.69 245.14-3.37 246.61-2.05 249.1-2.05ZM277.47 0.46L277.47 0.46Q274.68 0.46 273.14-1.26 271.61-2.98 271.61-6.81L271.61-6.81 271.61-24.05 267.04-24.05 267.04-26.42 271.61-26.42 271.61-33.2 274.54-33.2 274.54-26.42 280.69-26.42 280.69-24.05 274.54-24.05 274.54-6.81Q274.54-4.17 275.48-3.02 276.42-1.86 277.98-1.86L277.98-1.86Q278.81-1.86 279.61-1.97 280.42-2.08 281.27-2.2L281.27-2.2 281.71-0.1Q280.83 0.17 279.71 0.32 278.59 0.46 277.47 0.46Z" opacity="1" transform="matrix(1,0,0,1,0,0)" fill="#ffffff" class="slogan-text-1" data-fill-palette-color="secondary" id="text-1"></path></svg></g></svg></g></svg></g></svg></g><g transform="matrix(1,0,0,1,415.1173687090329,0)"><svg viewBox="0 0 244.43135999999998 176.54018341796873" height="176.54018341796873" width="244.43135999999998"><g><svg xmlns="http://www.w3.org/2000/svg" viewBox="5 12 54 39.00141906738281" x="0" y="0" height="176.54018341796873" width="244.43135999999998" class="icon-icon-0" data-fill-palette-color="accent" id="icon-0"><g fill="#7fdbff" data-fill-palette-color="accent"><circle cx="52.5" cy="44.5" r="6.5" fill="#ffffff" data-fill-palette-color="accent"></circle><path d="M52.5 36a8.591 8.591 0 0 1 2.5 0.37V15H39v2H53V28H51V19H49v5H44v2h1v2H41V23.414L43.414 21 42 19.586l-3 3V28H36V17H8v4H5V31.16A14.497 14.497 0 0 1 32 38.5 14.347 14.347 0 0 1 30.46 45H44.01c-0.01-0.17-0.01-0.33-0.01-0.5A8.506 8.506 0 0 1 52.5 36ZM47 26h2v2H47Z" fill="#ffffff" data-fill-palette-color="accent"></path><rect x="29" y="12" width="26" height="2" fill="#ffffff" data-fill-palette-color="accent"></rect><path d="M17.5 26A12.504 12.504 0 0 0 5.251 36H17a2.5 2.5 0 1 1 0 5H5.251A12.501 12.501 0 1 0 17.5 26Z" fill="#ffffff" data-fill-palette-color="accent"></path></g></svg></g></svg></g></svg></g><defs></defs></svg><rect width="395.52" height="105.86810391121097" fill="none" stroke="none" visibility="hidden"></rect></g></svg></g></svg>